{"glyphs":{":":{"x_min":0,"x_max":259,"ha":259,"o":"m 68 365 q 70 400 73 497 l 147 496 q 157 496 212 497 q 209 468 208 424 l 205 365 q 158 366 141 366 q 124 366 68 365 z m 52 0 q 54 35 57 131 l 131 130 q 141 130 195 131 q 193 96 191 60 l 188 0 l 125 1 q 121 1 52 0 z"},"$":{"x_min":0,"x_max":610,"ha":610,"o":"m 90 153 q 177 110 245 110 q 269 110 291 119 q 312 128 324 146 q 336 164 336 186 q 336 195 334 204 q 332 213 325 223 q 319 233 314 240 q 308 246 304 250 l 194 354 q 166 381 154 396 q 142 410 132 430 q 121 449 116 469 q 111 489 111 508 q 111 536 121 562 q 131 587 151 609 q 170 631 194 643 q 218 656 267 667 q 268 682 268 701 q 268 731 268 762 q 309 761 332 761 q 356 761 395 762 q 391 711 391 667 q 422 664 442 659 q 462 655 490 647 q 491 600 497 528 q 426 560 371 560 q 347 560 328 552 q 309 544 298 527 q 287 511 287 492 q 287 482 289 473 q 291 464 295 456 q 300 448 309 437 q 317 426 323 420 q 330 414 355 390 q 434 317 457 289 q 479 262 490 233 q 501 205 501 177 q 501 152 494 129 q 486 106 473 87 q 460 67 444 53 q 428 40 410 30 q 392 21 357 9 l 356 -44 q 356 -62 357 -96 q 321 -95 295 -95 q 269 -95 229 -96 q 232 -49 232 -1 q 190 3 162 10 q 134 17 96 31 q 93 118 90 153 z"},"?":{"x_min":0,"x_max":494,"ha":494,"o":"m 151 170 l 154 219 q 155 243 158 261 q 160 279 163 290 q 167 300 172 310 q 178 320 192 338 q 207 355 235 387 l 276 432 q 290 446 299 460 q 308 474 311 484 q 313 493 313 503 q 313 527 298 544 q 282 562 253 569 q 224 577 189 577 q 156 577 120 571 q 83 565 28 549 q 43 623 49 663 q 148 678 237 678 q 283 678 327 670 q 370 662 403 642 q 437 622 454 592 q 472 562 472 529 q 472 511 468 493 q 464 476 455 458 q 446 439 432 420 q 418 400 401 382 q 385 364 356 335 q 328 306 323 300 q 311 286 304 275 q 298 264 294 252 q 290 241 287 225 q 284 209 280 170 q 246 171 217 171 q 187 171 151 170 z m 132 0 q 137 59 141 124 q 190 123 216 123 q 243 123 289 124 q 286 80 285 52 q 284 23 282 0 q 229 1 209 1 q 188 1 132 0 z"},"<":{"x_min":0,"x_max":500,"ha":500,"o":"m 466 609 l 466 484 l 167 336 l 466 188 l 466 64 l 33 284 l 33 390 z"},"'":{"x_min":0,"x_max":203,"ha":203,"o":"m 69 487 q 71 538 71 646 l 72 667 q 102 666 120 666 q 135 666 167 667 q 157 579 150 487 q 126 488 113 488 q 96 488 69 487 z"},"=":{"x_min":0,"x_max":610,"ha":610,"o":"m 63 467 q 207 465 318 465 q 431 465 575 467 q 571 438 569 378 q 426 380 314 380 q 202 380 58 378 q 62 419 63 467 z m 53 309 q 192 307 309 307 q 426 307 565 309 q 562 274 560 220 q 421 222 304 222 q 186 222 48 220 q 52 257 53 309 z"},"a":{"x_min":0,"x_max":567,"ha":567,"o":"m 86 388 q 93 423 95 437 q 97 451 101 480 q 167 496 218 502 q 269 508 316 508 q 370 508 415 496 q 460 483 485 456 q 511 429 511 377 q 511 350 503 236 q 495 122 494 0 q 457 1 425 1 q 396 1 355 0 q 362 59 366 137 l 372 258 q 354 246 344 241 q 334 236 322 232 q 310 228 279 219 q 248 211 229 205 q 211 198 196 190 q 181 182 171 172 q 161 162 156 151 q 151 140 151 127 q 151 107 163 92 q 175 77 193 71 q 211 65 236 65 q 251 65 269 68 q 286 70 315 80 q 305 52 292 -3 q 257 -9 236 -10 q 216 -12 198 -12 q 137 -12 97 5 q 58 21 39 58 q 20 94 20 130 q 20 151 27 172 q 35 192 49 209 q 63 227 85 242 q 108 258 150 273 q 193 288 263 303 q 281 307 301 313 q 321 318 333 324 q 345 329 354 338 q 363 346 367 355 q 371 365 371 375 q 371 394 359 407 q 346 420 326 425 q 307 430 283 430 q 194 430 86 388 z"},"L":{"x_min":0,"x_max":537,"ha":537,"o":"m 54 0 q 69 147 78 327 q 86 508 88 667 q 138 666 171 666 q 193 666 243 667 q 236 579 231 466 l 221 271 q 217 187 215 104 l 299 103 q 417 103 454 103 q 491 104 527 106 q 523 58 520 0 q 391 1 300 1 l 146 0 z"},"3":{"x_min":0,"x_max":610,"ha":610,"o":"m 61 14 q 57 80 51 128 q 153 92 239 92 q 282 92 317 105 q 352 119 372 145 q 393 170 393 205 q 393 234 376 257 q 359 279 323 290 q 287 301 230 301 q 194 301 156 296 q 161 353 164 403 q 192 398 220 398 q 263 398 302 406 q 341 415 362 440 q 384 466 384 496 q 384 508 380 520 q 376 531 370 541 q 363 550 353 558 q 343 565 331 570 q 319 574 298 577 q 277 580 253 580 q 221 580 186 576 q 152 572 99 560 l 108 601 l 120 665 q 176 672 214 675 q 253 678 298 678 q 349 678 397 670 q 445 662 479 641 q 514 621 530 588 q 546 555 546 516 q 546 491 539 466 q 532 441 517 420 q 503 399 485 386 q 467 372 450 364 q 433 355 400 344 q 436 339 454 332 q 473 326 491 312 q 509 299 521 281 q 534 263 541 240 q 547 217 547 191 q 547 146 525 105 q 503 64 462 37 q 421 10 368 -1 q 315 -12 258 -12 q 216 -12 171 -6 q 126 -1 61 14 z"},";":{"x_min":0,"x_max":259,"ha":259,"o":"m 68 365 q 69 389 73 497 l 147 496 q 157 496 211 497 q 209 466 205 365 q 158 366 141 366 q 124 366 68 365 z m -3 -116 q 30 -24 70 96 q 123 95 145 95 q 163 95 217 96 q 198 63 176 28 q 154 -7 132 -46 q 109 -86 91 -115 q 60 -114 44 -114 q 25 -114 -3 -116 z"},"J":{"x_min":0,"x_max":466,"ha":466,"o":"m -13 11 q -16 67 -21 127 q 32 110 62 104 q 93 97 121 97 q 144 97 166 104 q 185 109 199 118 q 210 125 217 134 q 228 146 235 163 q 242 181 246 211 q 251 251 255 344 q 258 417 260 507 q 262 583 262 667 q 320 666 337 666 q 356 666 415 667 l 402 457 q 398 381 394 250 q 391 159 384 126 q 379 101 369 81 q 359 63 346 50 q 330 34 307 22 q 277 6 243 -2 q 206 -11 162 -11 q 87 -11 -13 11 z"},"V":{"x_min":0,"x_max":711,"ha":711,"o":"m 241 0 l 222 62 q 218 74 190 155 l 95 424 l 8 667 q 59 666 92 666 q 112 666 164 667 l 179 612 q 184 596 193 567 l 311 209 q 322 175 339 118 l 365 178 q 375 200 406 264 l 560 585 q 566 599 573 615 q 580 631 595 667 q 648 666 676 666 q 692 666 752 667 l 710 588 l 443 61 l 415 0 q 352 1 330 1 q 311 1 241 0 z"},"\"":{"x_min":0,"x_max":342,"ha":342,"o":"m 69 487 q 71 538 71 646 l 72 667 q 102 666 120 666 q 135 666 167 667 q 157 579 150 487 q 126 488 113 488 q 96 488 69 487 z m 208 487 q 210 529 210 584 l 211 667 q 241 666 259 666 q 274 666 306 667 q 295 573 290 487 q 265 488 252 488 q 235 488 208 487 z"},"7":{"x_min":0,"x_max":610,"ha":610,"o":"m 95 0 l 208 220 l 352 505 l 381 565 q 337 565 309 565 q 187 565 74 560 q 78 610 79 667 l 549 667 q 546 613 544 557 q 544 556 539 546 l 534 537 q 522 514 468 404 l 361 187 q 317 95 275 0 q 218 0 190 0 z"},"S":{"x_min":0,"x_max":513,"ha":513,"o":"m 41 14 q 37 88 30 135 q 126 92 204 92 q 235 92 262 101 q 290 111 302 128 q 315 146 315 167 q 315 184 310 197 q 301 215 280 234 q 252 261 179 323 q 145 353 131 365 q 102 393 86 415 q 71 438 64 459 q 57 481 57 506 q 57 552 83 593 q 108 633 159 656 q 210 678 288 678 q 358 678 445 661 q 448 610 455 545 q 379 574 314 574 q 267 574 236 552 q 206 531 206 502 q 206 494 208 486 q 209 477 213 469 q 217 461 227 448 q 237 435 257 418 q 276 400 290 390 l 357 335 q 380 316 398 298 q 417 280 429 263 q 442 247 450 231 q 457 216 461 200 q 464 185 464 167 q 464 126 445 90 q 426 53 391 30 q 355 6 312 -3 q 270 -12 223 -12 q 191 -12 150 -6 q 108 -1 41 14 z"},"}":{"x_min":0,"x_max":415,"ha":415,"o":"m 200 221 q 183 229 175 237 q 167 245 161 256 q 155 268 152 285 q 150 302 150 322 q 150 356 155 421 q 159 486 159 507 q 159 529 155 542 q 151 554 144 563 q 136 572 126 577 q 117 583 102 585 q 87 587 69 588 l 71 628 q 72 647 72 657 l 72 667 q 121 667 151 662 q 199 655 226 638 q 248 625 260 599 q 273 571 273 538 q 273 519 267 432 q 261 345 261 323 q 261 281 279 264 q 296 247 318 241 q 315 224 315 201 q 302 197 292 191 q 279 184 273 176 q 266 168 262 159 q 257 149 255 132 q 252 115 251 76 l 249 -7 q 248 -55 246 -80 q 243 -113 237 -133 q 231 -152 219 -168 q 208 -185 193 -195 q 179 -205 158 -211 q 132 -219 97 -222 q 78 -224 33 -224 q 35 -207 38 -146 q 82 -145 103 -131 q 125 -118 131 -95 q 137 -71 138 19 q 138 71 140 104 q 142 139 146 156 q 151 173 158 185 q 165 197 174 206 q 183 213 200 221 z"},"Z":{"x_min":0,"x_max":619,"ha":619,"o":"m 22 0 q 26 66 27 110 l 50 136 q 51 137 91 186 l 331 472 l 406 566 l 374 566 l 362 566 l 319 567 l 245 567 q 153 567 66 562 q 69 600 69 644 q 69 652 68 667 q 196 666 339 666 l 502 666 l 591 667 q 587 613 586 558 l 553 521 q 543 510 534 499 l 359 285 l 207 103 l 246 102 q 411 102 458 103 q 505 104 562 107 q 558 39 557 0 q 417 1 300 1 l 120 0 z"},"x":{"x_min":0,"x_max":556,"ha":556,"o":"m -11 0 q 85 127 184 264 l 143 330 q 123 362 90 413 l 35 497 q 88 496 121 496 q 163 496 196 497 q 218 453 247 401 l 282 334 l 390 497 q 424 496 464 496 q 501 496 541 497 l 464 396 q 438 362 368 266 l 439 150 l 535 0 q 493 1 458 1 q 415 1 374 0 q 344 61 315 111 q 285 162 271 190 q 251 159 218 110 q 184 61 146 0 q 104 1 71 1 q 34 1 -11 0 z"},")":{"x_min":0,"x_max":341,"ha":341,"o":"m 85 667 q 117 666 140 666 q 165 666 195 667 q 220 552 231 460 q 242 369 242 281 q 242 196 231 111 q 220 26 196 -67 q 172 -161 148 -224 q 117 -223 91 -223 q 65 -223 38 -224 q 60 -154 69 -119 q 83 -66 92 -10 q 106 70 113 152 q 120 234 120 308 q 120 359 117 411 q 114 462 109 507 q 104 551 100 575 z"},"&":{"x_min":0,"x_max":727,"ha":727,"o":"m 531 323 q 569 322 592 322 q 615 322 651 323 q 652 213 596 119 q 627 84 656 55 q 685 26 708 0 q 657 1 628 1 q 590 1 551 0 l 495 58 q 477 44 463 35 q 450 26 430 17 q 411 8 390 1 q 368 -5 344 -8 q 320 -12 292 -12 q 221 -12 163 12 q 105 36 75 83 q 45 130 45 185 q 45 224 60 259 q 74 293 109 326 q 144 358 216 397 q 191 437 180 466 q 169 495 169 522 q 169 554 184 585 q 199 615 228 638 q 257 660 292 669 q 328 678 368 678 q 431 678 509 658 l 512 549 q 479 565 456 571 q 433 577 411 577 q 383 577 359 567 q 335 557 323 537 q 311 518 311 497 q 311 485 314 472 q 317 459 326 441 q 338 417 361 385 q 390 346 420 312 q 428 303 473 257 q 494 236 512 215 q 519 232 522 243 q 525 255 527 276 q 530 297 531 323 z m 429 138 l 365 207 q 337 236 319 257 q 300 278 275 309 q 242 288 225 275 q 209 262 198 246 q 187 231 183 217 q 179 202 179 188 q 179 159 195 135 q 211 111 241 99 q 271 86 308 86 q 328 86 347 91 q 366 95 381 102 q 396 109 406 117 q 416 125 429 138 z"},"_":{"x_min":0,"x_max":500,"ha":500,"o":"m 0 -61 l 500 -61 l 500 -139 l 0 -139 z"},"v":{"x_min":0,"x_max":539,"ha":539,"o":"m 182 0 q 150 103 9 497 q 52 496 83 496 q 116 496 151 497 l 265 124 l 281 167 l 391 445 q 398 465 410 497 q 450 496 481 496 q 513 496 554 497 l 474 324 l 359 63 l 333 0 q 289 1 259 1 q 228 1 182 0 z"},"O":{"x_min":0,"x_max":834,"ha":834,"o":"m 437 678 q 509 678 576 658 q 643 638 695 593 q 747 548 773 488 q 799 428 799 348 q 799 272 774 204 q 750 135 697 86 q 645 36 570 12 q 495 -12 413 -12 q 334 -12 262 10 q 190 32 138 79 q 86 126 64 187 q 42 248 42 318 q 42 396 70 467 q 98 538 152 584 q 207 630 280 654 q 353 678 437 678 z m 429 574 q 355 574 300 540 q 246 506 218 448 q 190 389 190 320 q 190 257 217 203 q 244 150 299 122 q 354 94 418 94 q 466 94 510 110 q 554 127 586 161 q 618 195 634 243 q 650 291 650 342 q 650 391 636 435 q 622 479 591 511 q 561 543 518 559 q 476 574 429 574 z"},"(":{"x_min":0,"x_max":345,"ha":345,"o":"m 125 -224 q 106 -149 90 -55 q 75 38 75 140 q 75 225 86 311 q 97 396 124 501 q 151 606 172 667 q 204 666 227 666 q 252 666 283 667 l 261 585 q 250 548 240 503 q 230 458 223 414 q 215 369 209 319 q 204 270 201 221 q 198 173 198 125 q 198 72 200 27 q 202 -18 207 -61 q 212 -104 218 -136 q 224 -168 236 -224 q 204 -223 183 -223 q 159 -223 125 -224 z"},"C":{"x_min":0,"x_max":649,"ha":649,"o":"m 603 122 q 592 65 584 6 q 529 -4 482 -8 q 436 -12 403 -12 q 330 -12 263 9 q 196 29 143 73 q 89 118 65 181 q 42 244 42 318 q 42 399 70 468 q 99 537 153 584 q 207 632 281 655 q 354 678 435 678 q 514 678 607 660 q 609 617 610 599 l 614 546 q 559 561 522 566 q 485 572 452 572 q 400 572 352 556 q 304 540 267 505 q 230 471 210 422 q 190 373 190 319 q 190 256 215 206 q 239 155 293 124 q 347 93 427 93 q 500 93 603 122 z"},"W":{"x_min":0,"x_max":1053,"ha":1053,"o":"m 252 0 q 132 336 3 667 q 50 666 80 666 q 112 666 156 667 l 292 262 l 350 103 q 368 139 406 219 q 443 299 459 337 q 437 405 402 502 q 368 600 342 667 q 383 666 415 666 q 449 666 487 667 q 510 578 538 492 q 579 580 613 667 q 656 666 682 666 q 711 666 750 667 q 719 604 673 507 q 626 410 598 345 q 609 310 638 226 q 667 142 681 107 l 812 386 l 908 595 l 939 667 q 986 666 1014 666 q 1045 666 1090 667 l 998 484 l 806 91 l 763 0 q 711 1 674 1 q 635 1 584 0 q 555 99 521 194 q 474 99 433 0 q 380 1 342 1 q 302 1 252 0 z"},"A":{"x_min":0,"x_max":753,"ha":753,"o":"m -31 0 q 20 90 88 222 l 217 469 q 277 583 316 667 q 380 666 406 666 q 453 666 497 667 l 567 467 l 719 54 l 740 0 l 667 1 q 641 1 581 0 q 569 43 544 117 q 519 191 501 237 l 245 237 q 188 121 133 0 l 54 1 q 31 1 -31 0 z m 288 338 l 475 338 l 398 564 l 359 482 z"},"f":{"x_min":0,"x_max":344,"ha":344,"o":"m 67 0 l 73 81 l 87 398 l 27 398 q 28 413 30 446 q 32 479 32 494 l 99 494 l 99 513 q 99 565 103 593 q 107 621 119 638 q 131 656 153 669 q 175 682 201 686 q 227 691 254 691 q 310 691 372 675 q 373 621 377 582 q 330 598 292 598 q 276 598 264 594 q 251 591 243 584 q 235 578 229 568 q 224 558 222 544 q 220 530 220 512 l 220 494 l 345 494 q 342 460 339 398 l 222 398 q 212 204 208 0 q 163 1 137 1 q 110 1 67 0 z"},"Q":{"x_min":0,"x_max":845,"ha":845,"o":"m 809 127 q 803 98 797 69 l 788 16 q 703 3 604 -4 q 506 -12 437 -12 q 355 -12 284 6 q 213 24 157 68 q 100 113 71 175 q 42 238 42 320 q 42 401 70 469 q 99 536 154 584 q 209 633 282 656 q 355 678 437 678 q 510 678 579 657 q 647 636 696 591 q 746 546 772 484 q 798 421 798 354 q 798 320 792 287 q 785 254 772 225 q 759 195 743 173 q 727 151 710 135 q 693 119 669 99 q 716 104 736 109 q 756 113 809 127 z m 430 574 q 359 574 302 541 q 244 508 215 448 q 186 389 186 324 q 186 250 215 199 q 245 148 298 121 q 350 95 413 95 q 480 95 536 125 q 593 156 621 214 q 650 272 650 343 q 650 395 635 438 q 620 480 591 511 q 562 542 520 558 q 477 574 430 574 z"},"w":{"x_min":0,"x_max":870,"ha":870,"o":"m 179 0 l 122 173 l 40 412 l 9 497 q 46 496 78 496 q 107 496 140 497 l 253 131 l 382 497 q 419 496 452 496 q 487 496 519 497 l 603 174 q 604 167 613 131 l 625 163 q 625 164 634 186 l 709 378 l 754 497 q 792 496 818 496 q 840 496 885 497 l 750 190 q 707 91 670 0 q 629 1 605 1 q 581 1 531 0 l 442 355 q 435 336 413 274 l 313 0 q 272 1 250 1 q 227 1 179 0 z"},"-":{"x_min":0,"x_max":258,"ha":258,"o":"m -1 209 q 3 256 4 308 q 75 306 130 306 q 186 306 256 308 q 252 266 251 209 q 180 211 124 211 q 69 211 -1 209 z"},"E":{"x_min":0,"x_max":611,"ha":611,"o":"m 57 0 l 71 187 l 82 403 l 88 600 l 88 667 q 208 666 339 666 l 433 666 l 574 667 l 568 561 l 522 563 q 503 564 469 565 q 436 565 400 565 q 324 565 302 565 q 280 565 235 563 l 227 390 q 294 389 362 389 q 409 389 520 392 q 516 347 513 285 q 383 287 364 287 q 306 287 220 284 l 212 101 l 266 101 q 290 101 374 102 l 479 104 l 550 107 q 545 50 543 0 q 417 1 314 1 l 154 0 z"},"s":{"x_min":0,"x_max":438,"ha":438,"o":"m 36 9 l 25 117 q 73 97 106 90 q 139 82 167 82 q 195 82 214 89 q 233 95 242 108 q 251 121 251 135 q 251 142 250 147 q 249 152 246 158 q 243 164 239 169 q 234 174 227 181 q 220 188 206 198 l 180 219 q 142 249 122 266 q 102 283 88 301 q 74 318 67 338 q 60 358 60 378 q 60 414 82 446 q 104 479 145 493 q 187 508 243 508 q 307 508 390 493 l 396 391 q 340 414 288 414 q 259 414 238 408 q 217 403 208 391 q 198 380 198 366 q 198 357 201 349 q 204 341 211 333 q 219 324 228 316 q 238 308 268 285 q 298 262 321 244 q 344 225 358 206 q 373 188 381 166 q 389 145 389 123 q 389 86 366 55 q 344 23 298 6 q 253 -12 197 -12 q 167 -12 125 -7 q 83 -2 36 9 z"},">":{"x_min":0,"x_max":500,"ha":500,"o":"m 34 64 l 34 189 l 333 337 l 34 485 l 34 609 l 467 389 l 467 284 z"},"l":{"x_min":0,"x_max":265,"ha":265,"o":"m 49 0 q 57 83 67 297 q 78 511 80 667 q 131 666 152 666 q 181 666 223 667 l 211 488 l 194 91 l 192 0 q 152 1 124 1 q 115 1 49 0 z"},"8":{"x_min":0,"x_max":610,"ha":610,"o":"m 185 341 q 155 354 139 365 q 123 376 108 395 q 93 414 86 437 q 79 460 79 488 q 79 534 99 572 q 119 610 157 635 q 196 659 239 669 q 283 678 331 678 q 377 678 420 667 q 464 655 495 630 q 525 605 539 574 q 552 542 552 504 q 552 484 549 465 q 545 446 536 427 q 526 409 513 394 q 499 379 484 369 q 469 358 436 343 q 468 334 485 326 q 501 319 516 306 q 532 294 542 278 q 553 261 558 240 q 564 220 564 197 q 564 150 543 108 q 521 65 485 40 q 448 14 398 1 q 348 -12 295 -12 q 245 -12 198 -2 q 152 8 115 33 q 79 57 61 91 q 43 125 43 169 q 43 194 49 218 q 55 241 68 262 q 82 284 99 298 q 116 313 134 322 q 151 330 185 341 z m 321 583 q 270 583 239 553 q 208 522 208 477 q 208 448 222 427 q 235 406 259 396 q 282 385 310 385 q 342 385 369 399 q 395 412 410 437 q 424 461 424 492 q 424 533 396 558 q 368 583 321 583 z m 309 293 q 247 293 214 263 q 182 233 182 187 q 182 159 196 135 q 210 110 240 97 q 269 84 302 84 q 335 84 365 98 q 394 112 410 139 q 426 166 426 199 q 426 243 396 268 q 366 293 309 293 z"},"\\":{"x_min":0,"x_max":422,"ha":422,"o":"m 499 -224 q 463 -223 450 -223 q 434 -223 407 -224 l 368 -130 l 149 367 l 16 667 q 44 666 58 666 q 70 666 101 667 l 148 555 l 439 -95 z"},"e":{"x_min":0,"x_max":561,"ha":561,"o":"m 492 111 q 486 82 474 7 q 421 -4 385 -8 q 349 -12 312 -12 q 249 -12 198 1 q 147 14 109 48 q 71 82 53 131 q 35 180 35 234 q 35 294 56 351 q 77 407 115 443 q 153 479 201 494 q 250 509 302 509 q 352 509 397 496 q 442 484 472 456 q 503 427 519 387 q 536 348 536 299 q 536 276 531 251 l 173 251 q 172 233 172 222 q 172 189 183 162 q 194 135 216 116 q 237 97 267 88 q 297 79 326 79 q 359 79 399 86 q 438 93 492 111 z m 177 308 l 405 308 q 405 331 404 342 q 402 354 397 368 q 392 382 383 393 q 375 404 363 412 q 351 419 336 423 q 320 427 303 427 q 282 427 263 420 q 244 414 228 402 q 211 390 201 375 q 191 359 187 345 q 182 332 177 308 z"},"b":{"x_min":0,"x_max":622,"ha":622,"o":"m 49 0 q 58 93 69 323 q 79 552 80 667 q 123 666 155 666 q 187 666 223 667 q 214 598 209 493 q 257 502 286 505 q 314 508 342 508 q 418 508 471 484 q 523 460 555 404 q 587 348 587 269 q 587 213 571 160 q 555 108 524 67 q 492 26 447 7 q 402 -12 350 -12 q 324 -12 302 -7 q 281 -2 262 6 q 244 15 230 27 q 215 39 206 50 q 196 62 184 83 l 182 0 q 142 1 119 1 q 101 1 49 0 z m 200 393 l 196 310 q 195 283 195 257 q 195 197 207 162 q 220 127 250 108 q 279 89 316 89 q 357 89 387 111 q 417 132 432 174 q 448 216 448 263 q 448 330 413 370 q 377 411 308 411 q 285 411 261 407 q 236 403 200 393 z"},"%":{"x_min":0,"x_max":851,"ha":851,"o":"m 197 674 q 244 674 278 651 q 312 628 330 584 q 348 540 348 479 q 348 410 327 352 q 305 295 267 270 q 228 246 178 246 q 142 246 111 259 q 80 272 61 300 q 41 327 32 363 q 23 398 23 437 q 23 502 44 562 q 65 622 106 648 q 146 674 197 674 z m 192 605 q 169 605 151 585 q 132 565 122 524 q 112 483 112 435 q 112 372 130 343 q 149 313 179 313 q 191 313 201 318 q 212 322 223 335 q 233 348 242 372 q 251 396 256 424 q 260 453 260 483 q 260 544 240 575 q 221 605 192 605 z m 198 0 l 392 339 l 574 667 q 596 666 616 666 q 633 666 656 667 l 522 434 l 321 73 l 283 0 q 261 1 243 1 q 228 1 198 0 z m 677 420 q 725 420 758 400 q 791 379 810 336 q 830 292 830 229 q 830 183 820 138 q 810 92 788 58 q 766 23 732 8 q 699 -7 659 -7 q 610 -7 576 14 q 542 35 523 78 q 505 121 505 185 q 505 251 526 310 q 548 370 588 395 q 628 420 677 420 z m 674 352 q 649 352 631 330 q 612 309 603 269 q 594 230 594 182 q 594 138 602 112 q 610 87 626 73 q 641 60 661 60 q 673 60 683 64 q 693 69 704 82 q 715 94 724 118 q 733 142 737 171 q 741 199 741 229 q 741 291 723 321 q 705 352 674 352 z"},"m":{"x_min":0,"x_max":894,"ha":894,"o":"m 50 0 q 57 83 64 248 q 72 413 72 497 q 113 496 139 496 q 169 496 204 497 l 200 418 q 215 441 228 455 q 241 470 262 482 q 282 494 310 501 q 337 508 367 508 q 389 508 409 504 q 430 500 447 492 q 463 485 475 475 q 487 465 496 453 q 504 441 514 418 q 524 435 533 447 q 542 458 558 470 q 573 482 591 491 q 610 499 633 504 q 656 508 681 508 q 724 508 761 494 q 799 480 820 450 q 842 420 842 376 q 842 353 838 307 q 835 262 830 159 q 825 56 825 0 q 789 1 762 1 q 729 1 686 0 q 690 63 694 132 l 700 244 q 703 286 703 315 q 703 350 692 368 q 681 386 664 393 q 647 401 626 401 q 604 401 586 393 q 568 384 553 366 q 538 347 529 323 q 521 298 517 253 q 513 208 511 136 l 507 0 q 467 1 440 1 q 413 1 368 0 q 372 38 378 154 q 384 270 384 311 q 384 332 381 347 q 377 362 367 375 q 356 389 342 395 q 328 401 310 401 q 275 401 250 379 q 224 356 212 319 q 200 281 195 173 q 189 64 189 0 q 145 1 122 1 q 96 1 50 0 z"},"#":{"x_min":0,"x_max":610,"ha":610,"o":"m 145 213 l 32 212 q 41 253 48 298 l 161 297 l 176 379 l 150 379 l 107 378 l 62 378 q 71 412 80 464 l 191 463 l 228 667 q 245 666 274 666 q 305 666 320 667 q 312 626 282 462 l 384 462 l 420 667 q 438 666 467 666 q 498 666 513 667 q 503 615 476 463 q 579 464 587 464 q 575 409 571 378 l 459 379 l 444 297 l 557 298 q 549 267 540 212 l 428 213 l 391 0 q 374 1 344 1 q 313 1 298 0 l 338 214 l 286 214 l 236 214 l 198 0 q 181 1 151 1 q 120 1 105 0 z m 267 379 l 251 297 l 354 297 l 369 379 l 317 380 z"},",":{"x_min":0,"x_max":259,"ha":259,"o":"m -3 -116 q 30 -24 70 96 q 123 95 145 95 q 163 95 217 96 q 198 63 176 28 q 154 -7 132 -46 q 109 -86 91 -115 q 60 -114 44 -114 q 25 -114 -3 -116 z"},"n":{"x_min":0,"x_max":640,"ha":640,"o":"m 45 0 q 57 111 64 249 q 72 387 73 497 q 118 496 145 496 q 176 496 212 497 l 207 414 q 222 435 233 448 q 245 460 262 473 q 280 485 301 492 q 321 500 346 504 q 371 508 398 508 q 442 508 482 497 q 521 486 546 462 q 570 438 578 410 q 586 382 586 350 q 586 337 584 308 l 574 95 q 572 50 572 0 q 533 1 506 1 q 469 1 431 0 q 435 42 441 148 q 447 254 447 288 q 447 327 435 350 q 422 374 397 386 q 371 398 341 398 q 312 398 287 387 q 261 375 243 354 q 223 332 212 300 q 201 266 196 187 q 191 117 188 0 q 150 1 120 1 q 89 1 45 0 z"},"h":{"x_min":0,"x_max":643,"ha":643,"o":"m 49 0 l 61 159 l 72 386 l 79 667 q 122 666 150 666 q 188 666 221 667 l 212 550 q 209 507 205 412 q 220 436 231 447 q 241 459 254 469 q 267 479 281 486 q 294 493 313 498 q 331 503 354 506 q 376 509 399 509 q 440 509 477 500 q 515 491 542 469 q 569 447 579 417 q 589 388 589 355 q 589 334 586 290 l 575 77 q 573 43 573 0 q 534 1 503 1 q 471 1 429 0 q 436 58 442 157 q 449 257 449 299 q 449 337 436 359 q 424 381 400 391 q 375 402 347 402 q 310 402 281 389 q 254 376 235 351 q 220 330 210 291 q 199 250 194 164 q 192 122 189 0 q 150 1 123 1 q 96 1 49 0 z"},"z":{"x_min":0,"x_max":482,"ha":482,"o":"m 23 0 q 25 48 26 108 q 45 127 51 134 l 290 404 l 265 404 q 200 404 151 402 q 102 401 55 398 q 58 445 58 497 q 143 496 217 496 q 352 496 445 497 q 443 476 440 383 l 196 112 l 180 95 q 229 93 262 93 q 333 93 361 94 q 388 94 427 96 q 423 60 420 0 q 334 1 226 1 q 110 1 23 0 z"},"B":{"x_min":0,"x_max":654,"ha":654,"o":"m 59 0 q 68 104 71 169 q 75 235 80 395 q 85 554 85 613 q 85 631 85 667 q 146 666 187 666 q 228 666 288 667 q 348 668 387 668 q 442 668 469 664 q 497 659 519 650 q 540 641 555 627 q 569 614 580 595 q 590 577 595 556 q 601 535 601 513 q 601 485 594 461 q 587 436 575 416 q 562 396 546 383 q 529 369 514 361 q 499 353 474 344 q 497 339 510 335 q 524 330 540 321 q 555 311 569 296 q 583 281 591 265 q 600 248 604 228 q 609 208 609 186 q 609 139 589 100 q 568 61 533 38 q 497 15 453 8 q 409 0 265 0 l 147 0 z m 218 390 l 297 390 q 347 390 365 393 q 382 395 401 402 q 420 409 433 424 q 446 439 452 457 q 458 475 458 493 q 458 511 452 527 q 445 543 432 554 q 418 564 399 569 q 379 574 342 574 l 225 574 z m 207 96 l 317 96 q 351 96 370 98 q 389 101 406 108 q 423 115 433 123 q 442 130 450 143 q 458 155 462 170 q 466 186 466 202 q 466 225 458 242 q 451 259 435 271 q 420 284 399 289 q 379 295 337 295 l 214 295 z"},"K":{"x_min":0,"x_max":671,"ha":671,"o":"m 58 0 q 66 96 70 165 q 76 264 83 445 q 88 569 88 621 l 88 667 q 148 666 167 666 q 180 666 243 667 l 228 403 l 214 87 l 213 0 l 137 1 q 124 1 58 0 z m 235 353 l 346 489 l 447 617 q 458 631 483 667 l 571 666 q 576 666 655 667 l 430 402 l 392 355 l 423 311 q 430 302 520 184 l 662 0 l 575 1 q 552 1 479 0 l 448 49 q 439 63 417 95 l 284 285 z"},"R":{"x_min":0,"x_max":631,"ha":631,"o":"m 57 0 q 71 146 79 334 q 86 523 86 667 q 145 666 184 666 q 227 666 267 667 q 308 668 354 668 q 410 668 455 662 q 500 656 534 633 q 569 610 586 577 q 603 544 603 501 q 603 474 596 449 q 590 424 577 403 q 565 381 548 365 q 531 348 514 339 q 497 329 476 322 q 454 315 418 306 l 451 241 q 467 210 512 131 l 562 44 q 565 38 585 0 q 525 1 506 1 q 483 1 424 0 l 370 130 q 355 160 335 200 l 276 319 q 268 335 252 369 q 285 363 312 363 q 354 363 388 376 q 423 390 441 419 q 460 447 460 481 q 460 501 452 519 q 444 537 425 549 q 406 561 379 564 q 353 568 327 568 q 312 568 287 567 q 261 567 224 567 l 215 366 l 206 0 l 130 1 q 112 1 57 0 z"},"T":{"x_min":0,"x_max":576,"ha":576,"o":"m 200 0 l 210 143 l 221 355 l 228 564 l 194 564 l 162 563 l 132 563 l 19 560 q 23 630 23 667 q 164 666 318 666 l 493 666 l 587 667 q 582 598 582 561 q 494 565 413 565 l 375 565 l 369 476 l 355 132 l 354 74 q 354 39 354 0 l 279 1 q 267 1 200 0 z"},"P":{"x_min":0,"x_max":589,"ha":589,"o":"m 59 0 l 67 116 l 80 372 l 85 558 q 86 583 86 609 q 86 628 85 667 q 148 666 187 666 q 218 666 274 667 q 330 668 362 668 q 430 668 461 659 q 495 648 521 625 q 546 602 559 570 q 574 534 574 492 q 574 429 542 378 q 511 326 455 301 q 399 275 332 275 q 298 275 261 282 q 250 333 236 377 q 267 371 296 371 q 337 371 367 383 q 396 396 414 423 q 432 451 432 485 q 432 506 424 523 q 417 540 403 550 q 389 561 372 564 q 355 568 324 568 q 297 568 269 567 q 241 566 220 566 q 214 470 211 383 l 205 196 q 202 97 202 51 q 202 33 203 0 l 132 1 q 118 1 59 0 z"},"|":{"x_min":0,"x_max":500,"ha":500,"o":"m 187 667 l 313 667 l 313 -167 l 187 -167 z"},"t":{"x_min":0,"x_max":372,"ha":372,"o":"m 354 102 q 348 75 335 2 q 294 -7 271 -9 q 247 -12 227 -12 q 190 -12 162 -5 q 133 2 115 19 q 96 37 90 60 q 83 83 83 108 q 83 114 83 125 q 84 136 87 194 l 99 397 l 28 397 q 31 427 33 492 l 106 492 q 109 520 112 588 l 170 599 q 188 603 240 615 q 236 549 236 492 l 360 492 q 356 426 356 397 l 232 397 q 222 199 222 167 q 222 137 228 121 q 235 104 250 97 q 264 89 281 89 q 293 89 306 91 q 320 93 354 102 z"},"M":{"x_min":0,"x_max":886,"ha":886,"o":"m 45 0 l 58 110 l 90 498 l 102 667 q 171 666 204 666 q 229 666 298 667 q 306 627 310 610 q 313 594 325 557 q 336 521 354 468 q 379 389 400 312 l 437 172 l 502 352 l 598 584 q 603 596 608 612 q 613 627 625 667 q 683 666 729 666 q 759 666 825 667 q 818 526 815 356 q 812 186 812 102 q 812 61 812 0 q 764 1 747 1 q 721 1 679 0 q 682 50 683 82 l 691 373 q 693 434 693 494 l 692 533 l 512 58 l 491 0 q 444 1 426 1 q 404 1 357 0 l 273 301 q 269 317 253 368 l 223 468 q 218 482 216 491 q 214 500 207 531 l 200 469 q 198 439 193 369 l 174 66 q 173 44 172 0 l 109 1 q 93 1 45 0 z"},"g":{"x_min":0,"x_max":630,"ha":630,"o":"m 84 -104 q 194 -140 274 -140 q 305 -140 333 -132 q 360 -125 378 -110 q 397 -96 407 -71 q 417 -46 421 -14 q 424 19 426 84 q 407 59 392 44 q 377 30 356 18 q 334 7 306 0 q 278 -7 247 -7 q 204 -7 165 6 q 126 20 96 48 q 66 77 51 121 q 35 165 35 212 q 35 280 61 340 q 86 401 136 440 q 186 479 242 494 q 298 508 367 508 q 405 508 454 504 q 502 499 582 485 l 570 330 l 560 136 l 556 -39 q 555 -69 549 -96 q 543 -124 530 -146 q 518 -168 498 -186 q 479 -203 454 -213 q 429 -224 393 -230 q 356 -237 315 -237 q 271 -237 214 -231 q 157 -226 90 -209 z m 440 399 q 398 408 362 408 q 298 408 257 385 q 215 361 193 317 q 170 272 170 223 q 170 186 184 155 q 198 123 227 107 q 256 91 291 91 q 316 91 338 99 q 359 106 377 123 q 395 139 408 163 q 421 187 427 217 q 433 247 436 292 q 438 337 440 399 z"},"j":{"x_min":0,"x_max":268,"ha":268,"o":"m 75 583 q 78 634 79 674 q 110 673 149 673 q 185 673 220 674 l 217 628 q 217 625 215 583 q 178 584 145 584 q 111 584 75 583 z m 212 497 l 203 279 l 196 61 q 192 -76 189 -103 q 185 -138 176 -158 q 168 -175 157 -188 q 146 -201 128 -212 q 109 -224 86 -229 q 55 -237 12 -237 q -14 -237 -51 -234 q -87 -231 -133 -222 l -138 -159 l -143 -117 q -93 -134 -51 -134 q -29 -134 -10 -128 q 8 -122 21 -111 q 29 -104 36 -93 q 46 -75 51 -48 q 56 -22 62 82 q 65 161 68 267 q 72 405 72 452 l 72 497 q 116 496 143 496 q 171 496 212 497 z"},"i":{"x_min":0,"x_max":267,"ha":267,"o":"m 75 582 q 77 632 77 659 l 77 674 q 122 673 149 673 q 188 673 220 674 q 219 662 218 646 l 216 582 q 179 583 147 583 q 116 583 75 582 z m 49 0 q 56 73 59 123 q 64 201 68 303 q 71 405 73 497 q 121 496 145 496 q 167 496 216 497 q 209 412 205 334 q 201 257 199 158 q 197 58 197 0 q 152 1 125 1 q 100 1 49 0 z"},"y":{"x_min":0,"x_max":539,"ha":539,"o":"m -12 -225 q -21 -151 -26 -119 q 21 -141 62 -141 q 75 -141 88 -138 q 101 -135 112 -129 q 120 -125 127 -118 q 135 -110 148 -91 q 161 -71 171 -52 q 179 -36 187 -12 l 85 286 l 11 497 q 62 496 85 496 q 111 496 153 497 q 163 456 172 426 l 218 273 q 240 202 249 167 q 255 143 263 104 q 277 149 288 177 q 307 228 341 312 l 389 429 q 401 460 415 497 q 458 496 481 496 q 502 496 552 497 l 364 75 l 282 -111 q 265 -147 250 -167 q 237 -184 222 -196 q 207 -208 190 -216 q 169 -226 145 -231 q 117 -237 89 -237 q 73 -237 44 -234 q 15 -231 -12 -225 z"},"@":{"x_min":0,"x_max":842,"ha":842,"o":"m 611 485 l 604 448 l 597 407 q 591 369 585 337 q 579 306 577 292 q 575 278 574 272 q 574 267 574 263 q 574 249 582 241 q 589 234 602 234 q 627 234 659 260 q 690 285 709 329 q 729 373 729 421 q 729 464 712 503 q 695 541 658 567 q 620 593 571 604 q 521 615 470 615 q 400 615 337 596 q 274 577 225 532 q 175 487 148 422 q 121 358 121 289 q 121 235 138 189 q 155 143 191 111 q 227 80 279 65 q 331 51 389 51 q 448 51 495 62 q 541 72 589 102 q 595 74 604 45 q 557 16 503 2 q 449 -12 384 -12 q 312 -12 246 8 q 180 27 136 66 q 92 104 71 160 q 50 216 50 280 q 50 364 83 443 q 116 522 173 575 q 230 628 309 653 q 388 678 474 678 q 541 678 603 662 q 664 646 708 613 q 752 579 775 528 q 799 478 799 421 q 799 354 766 294 q 734 235 677 199 q 620 163 559 163 q 539 163 520 168 q 501 174 489 187 q 477 200 475 217 q 456 198 449 192 q 442 186 427 179 q 412 171 394 167 q 375 163 357 163 q 323 163 296 179 q 269 195 255 223 q 242 250 242 288 q 242 340 271 395 q 299 449 351 474 q 403 500 484 500 q 509 500 536 497 q 564 494 611 485 z m 504 424 q 481 429 463 429 q 425 429 396 412 q 367 396 351 363 q 334 330 334 297 q 334 280 341 265 q 347 250 361 241 q 375 231 393 231 q 423 231 449 254 q 474 276 484 315 q 492 343 504 424 z"},".":{"x_min":0,"x_max":259,"ha":259,"o":"m 52 0 q 54 35 57 131 l 131 130 q 141 130 195 131 q 193 96 191 60 l 188 0 l 125 1 q 121 1 52 0 z"},"p":{"x_min":0,"x_max":622,"ha":622,"o":"m 37 -224 q 49 -88 59 129 q 68 346 68 481 q 161 498 212 503 q 263 508 313 508 q 379 508 434 493 q 489 477 522 440 q 555 404 571 355 q 586 307 586 254 q 586 201 571 152 q 556 103 525 63 q 494 24 452 6 q 411 -12 362 -12 q 333 -12 305 -5 q 277 2 256 13 q 235 24 221 36 q 208 47 187 70 l 179 -142 l 179 -175 q 178 -182 178 -224 q 133 -224 109 -224 z m 203 391 q 200 365 198 346 l 195 292 q 193 256 193 240 q 193 210 199 183 q 206 155 224 132 q 242 109 267 97 q 292 85 319 85 q 356 85 387 107 q 417 128 434 169 q 451 210 451 256 q 451 308 432 343 q 414 378 383 395 q 353 411 313 411 q 263 411 203 391 z"},"X":{"x_min":0,"x_max":641,"ha":641,"o":"m -33 0 l 3 45 q 20 66 61 120 l 193 293 l 234 351 l 175 447 l 31 667 q 79 666 123 666 q 158 666 203 667 q 234 609 274 547 q 314 485 335 445 q 362 486 412 553 q 461 621 489 667 q 529 666 570 666 q 596 666 651 667 q 612 614 542 523 q 471 431 408 343 q 474 233 628 0 q 571 1 545 1 q 503 1 455 0 q 428 52 381 126 q 335 200 308 248 q 281 206 227 133 q 173 61 132 0 q 79 1 51 1 q 21 1 -33 0 z"},"*":{"x_min":0,"x_max":501,"ha":501,"o":"m 107 398 l 196 493 l 79 530 q 98 566 113 603 l 228 552 l 226 678 q 252 677 267 677 q 284 677 308 678 l 292 552 l 412 601 q 422 567 437 527 l 314 492 l 394 397 l 363 375 q 350 365 328 346 l 253 454 l 166 346 q 139 372 107 398 z"},"Y":{"x_min":0,"x_max":586,"ha":586,"o":"m 193 0 q 199 54 205 142 q 211 229 212 281 l -7 667 q 48 666 79 666 q 108 666 157 667 q 179 616 221 538 q 263 460 293 395 l 438 629 q 446 642 460 667 q 507 666 544 666 q 563 666 623 667 l 356 271 l 350 147 q 347 92 346 0 q 293 1 270 1 q 245 1 193 0 z"},"c":{"x_min":0,"x_max":489,"ha":489,"o":"m 438 113 q 436 93 431 67 q 426 42 420 4 q 351 -12 283 -12 q 243 -12 207 -4 q 170 3 138 22 q 107 41 83 71 q 59 102 47 146 q 35 189 35 236 q 35 297 55 354 q 75 411 113 447 q 151 482 198 495 q 244 508 301 508 q 333 508 367 505 q 400 501 446 490 l 454 383 q 381 408 327 408 q 293 408 264 396 q 234 385 213 361 q 192 337 183 305 q 174 273 174 240 q 174 194 188 160 q 203 126 238 107 q 273 89 318 89 q 340 89 371 94 q 403 100 438 113 z"},"!":{"x_min":0,"x_max":313,"ha":313,"o":"m 89 195 l 94 367 l 102 667 q 148 666 175 666 q 196 666 246 667 l 236 532 l 215 195 q 180 196 158 196 q 127 196 89 195 z m 69 0 l 72 41 q 74 58 75 78 l 77 127 q 133 126 154 126 q 169 126 227 127 q 223 72 220 0 l 146 1 q 125 1 69 0 z"},"/":{"x_min":0,"x_max":429,"ha":429,"o":"m -111 -224 l 60 107 l 281 540 l 344 667 q 375 666 388 666 q 402 666 431 667 l 30 -125 l -18 -224 q -46 -223 -62 -223 q -76 -223 -111 -224 z"},"[":{"x_min":0,"x_max":345,"ha":345,"o":"m 102 667 q 164 666 211 666 q 259 666 321 667 q 319 656 318 622 l 316 587 q 291 588 266 588 q 241 588 216 587 q 194 220 185 -146 q 210 -146 235 -146 q 260 -146 285 -146 q 282 -173 281 -224 q 236 -223 172 -223 q 108 -223 63 -224 l 80 58 l 94 388 z"},"6":{"x_min":0,"x_max":610,"ha":610,"o":"m 311 405 q 345 411 371 411 q 421 411 467 392 q 512 374 538 327 q 564 281 564 226 q 564 179 547 135 q 529 90 493 54 q 456 19 405 4 q 354 -12 297 -12 q 247 -12 201 1 q 155 13 118 42 q 82 70 64 113 q 46 155 46 201 q 46 235 54 278 q 62 320 89 382 q 117 444 163 517 q 209 590 268 667 l 446 667 q 375 583 351 552 q 317 508 288 461 q 258 415 238 374 q 218 333 205 294 q 197 272 193 250 q 189 228 189 207 q 189 153 220 121 q 251 89 300 89 q 336 89 363 105 q 391 122 404 150 q 417 179 417 211 q 417 243 404 266 q 392 289 362 301 q 333 312 300 312 q 280 312 253 306 q 301 385 311 405 z"},"r":{"x_min":0,"x_max":388,"ha":388,"o":"m 48 0 l 62 232 l 66 367 q 67 408 67 450 q 67 458 66 497 q 112 496 133 496 q 158 496 199 497 l 197 428 q 215 454 229 467 q 242 480 258 489 q 274 499 294 503 q 314 508 335 508 q 355 508 375 503 q 375 458 380 388 q 351 396 328 396 q 299 396 278 387 q 256 379 239 362 q 221 344 210 319 q 201 298 196 266 q 192 240 190 179 q 187 117 187 58 q 187 35 188 0 q 151 1 121 1 q 90 1 48 0 z"},"2":{"x_min":0,"x_max":610,"ha":610,"o":"m 47 0 q 49 19 49 30 l 52 101 q 113 156 163 207 q 214 258 267 316 q 319 375 346 410 q 368 439 375 453 q 383 468 385 478 q 388 488 388 498 q 388 525 372 542 q 355 559 327 568 q 299 578 262 578 q 228 578 188 572 q 148 565 85 549 l 94 599 q 97 616 103 658 q 216 678 320 678 q 367 678 411 669 q 455 660 490 638 q 524 617 540 588 q 556 560 556 528 q 556 510 552 491 q 548 473 542 458 q 528 428 508 397 q 488 366 445 315 q 401 264 350 210 q 299 156 237 97 l 281 97 l 390 98 q 444 98 470 99 q 495 100 531 104 q 530 88 528 64 q 525 40 522 0 q 412 1 292 1 q 146 1 47 0 z"},"{":{"x_min":0,"x_max":415,"ha":415,"o":"m 188 220 q 200 214 207 209 q 213 205 220 196 q 226 188 230 177 q 235 167 237 152 q 239 137 239 117 q 239 95 236 55 l 231 -12 q 229 -39 229 -60 q 229 -84 233 -98 q 236 -111 242 -119 q 249 -128 260 -134 q 271 -140 286 -143 q 302 -146 321 -146 q 320 -157 318 -181 q 316 -206 316 -224 q 268 -224 236 -219 q 188 -212 163 -196 q 142 -183 130 -157 q 116 -127 116 -87 q 116 -64 122 16 q 127 97 127 120 q 127 137 124 150 q 121 163 116 170 q 111 178 103 185 q 94 191 87 195 q 80 198 70 200 q 73 218 74 241 q 87 245 98 252 q 112 261 120 271 q 127 280 131 295 q 135 311 137 342 q 138 356 140 444 q 142 532 146 556 q 151 585 166 607 q 181 629 204 642 q 229 656 270 662 q 302 667 356 667 q 355 656 353 630 q 352 604 351 588 q 319 586 301 581 q 284 575 274 565 q 264 555 259 539 q 254 523 252 487 q 251 451 251 420 q 251 399 250 370 q 250 340 247 316 q 245 292 240 277 q 236 263 230 253 q 223 243 215 236 q 206 229 188 220 z"},"9":{"x_min":0,"x_max":610,"ha":610,"o":"m 168 0 q 232 81 276 143 q 324 211 358 270 q 384 313 399 350 q 414 387 419 411 q 424 436 424 458 q 424 494 411 522 q 397 549 372 563 q 347 578 314 578 q 281 578 252 562 q 223 547 208 520 q 192 493 192 460 q 192 429 203 406 q 215 382 242 369 q 269 356 306 356 q 320 356 334 359 q 347 361 366 366 q 332 315 301 265 q 273 260 251 260 q 193 260 143 283 q 94 306 71 349 q 48 392 48 444 q 48 510 81 563 q 113 617 177 648 q 240 678 323 678 q 378 678 427 663 q 477 648 508 618 q 540 588 554 547 q 569 506 569 467 q 569 438 563 403 q 556 367 541 328 q 526 288 501 238 q 476 188 440 133 q 404 78 350 0 q 306 0 264 0 z"}," ":{"x_min":0,"x_max":250,"ha":250,"o":""},"I":{"x_min":0,"x_max":294,"ha":294,"o":"m 59 0 q 70 168 78 344 q 85 521 85 614 l 84 667 l 166 666 q 173 666 241 667 q 221 410 215 0 l 144 1 q 125 1 59 0 z"},"H":{"x_min":0,"x_max":776,"ha":776,"o":"m 59 0 l 70 175 q 79 319 83 442 q 87 564 87 613 l 86 667 q 144 666 168 666 q 186 666 242 667 l 229 446 l 228 396 l 561 396 l 566 528 q 568 596 568 617 l 568 667 l 650 666 q 661 666 723 667 l 707 400 l 700 203 l 698 87 q 697 16 697 0 l 621 1 q 606 1 540 0 q 552 138 556 291 l 222 291 l 215 111 l 213 0 l 133 1 q 120 1 59 0 z"},"4":{"x_min":0,"x_max":610,"ha":610,"o":"m 309 0 q 318 98 322 201 l 223 201 l 43 198 q 44 205 47 253 q 49 301 49 318 l 85 365 q 99 383 128 422 l 233 566 q 248 587 263 609 q 278 631 301 667 q 360 666 398 666 q 435 666 483 667 q 469 458 465 303 q 489 303 521 303 q 559 303 572 304 q 571 266 571 216 l 571 200 q 541 202 461 202 q 460 179 459 161 q 458 142 458 95 q 457 48 457 28 l 457 0 q 419 1 385 1 q 354 1 309 0 z m 340 298 q 342 327 342 331 l 351 568 q 277 460 253 429 l 159 298 z"},"~":{"x_min":0,"x_max":667,"ha":667,"o":"m 156 220 l 93 271 q 101 289 109 303 q 116 318 129 336 q 142 355 152 365 q 163 375 177 383 q 191 391 206 395 q 222 399 238 399 q 253 399 267 396 q 282 393 305 384 q 329 375 359 361 q 389 348 398 344 q 407 340 417 338 q 426 336 434 336 q 457 336 476 353 q 495 369 512 402 l 575 352 q 562 321 553 305 q 544 289 530 273 q 515 256 499 246 q 482 236 463 230 q 443 225 420 225 q 412 225 404 226 q 396 228 383 231 q 370 235 364 238 q 358 240 331 252 l 311 262 q 291 271 276 276 q 260 282 250 284 q 240 286 232 286 q 212 286 194 271 q 176 256 156 220 z"},"D":{"x_min":0,"x_max":755,"ha":755,"o":"m 58 0 l 71 170 l 81 382 l 87 594 q 88 607 88 667 q 142 666 190 666 q 226 666 284 667 q 342 668 385 668 q 442 668 491 662 q 541 655 577 636 q 614 617 641 589 q 667 561 685 526 q 702 492 711 449 q 720 407 720 363 q 720 279 691 203 q 662 127 604 78 q 546 28 476 14 q 406 0 317 0 l 151 1 q 136 1 58 0 z m 208 104 q 248 102 287 102 q 332 102 369 106 q 407 111 435 120 q 462 130 490 154 q 517 178 535 209 q 552 241 562 279 q 571 318 571 358 q 571 431 546 478 q 521 525 480 546 q 439 567 354 567 q 299 567 228 565 z"},"^":{"x_min":0,"x_max":500,"ha":500,"o":"m 133 357 l 20 357 l 179 670 l 321 670 l 480 357 l 366 357 l 250 584 z"},"0":{"x_min":0,"x_max":610,"ha":610,"o":"m 324 678 q 401 678 456 645 q 511 612 542 539 q 572 466 572 369 q 572 292 553 216 q 535 140 502 91 q 469 42 412 15 q 355 -12 291 -12 q 228 -12 179 12 q 130 37 99 80 q 68 124 56 178 q 44 233 44 291 q 44 370 62 447 q 81 524 116 576 q 151 627 207 653 q 262 678 324 678 z m 320 577 q 302 577 284 569 q 266 562 249 545 q 232 528 221 506 q 210 483 201 451 q 192 419 187 375 q 182 331 182 285 q 182 219 196 177 q 209 135 236 112 q 262 89 297 89 q 316 89 334 97 q 352 104 371 125 q 390 146 405 187 q 419 227 426 275 q 433 323 433 373 q 433 440 420 484 q 407 528 381 552 q 355 577 320 577 z"},"F":{"x_min":0,"x_max":572,"ha":572,"o":"m 59 0 q 67 96 70 154 q 76 251 82 432 q 86 566 86 621 l 86 667 q 226 666 331 666 l 468 666 l 549 667 q 544 594 543 561 l 474 563 l 445 564 l 407 564 l 333 564 l 232 563 l 226 388 l 309 387 q 404 387 431 387 l 497 388 q 494 332 493 285 q 408 287 357 287 q 294 287 220 285 l 215 69 l 214 25 l 214 0 l 140 1 q 134 1 59 0 z"},"`":{"x_min":0,"x_max":500,"ha":500,"o":"m 325 563 q 297 564 275 564 q 246 564 222 563 l 185 617 q 168 642 138 682 q 185 681 211 681 q 245 681 284 682 l 296 646 q 302 628 310 606 z"},"k":{"x_min":0,"x_max":549,"ha":549,"o":"m 49 0 l 59 127 l 70 371 l 75 579 q 76 636 76 667 q 127 666 149 666 q 174 666 216 667 l 206 508 l 194 255 l 189 66 l 188 0 q 145 1 120 1 q 92 1 49 0 z m 205 278 l 304 399 q 316 415 334 438 q 352 460 378 497 q 429 496 453 496 q 485 496 534 497 l 374 312 l 345 277 q 380 220 542 0 q 499 1 467 1 q 436 1 390 0 q 361 46 344 74 q 326 103 311 124 l 228 242 q 224 247 205 278 z"},"u":{"x_min":0,"x_max":625,"ha":625,"o":"m 553 0 q 510 1 487 1 q 458 1 421 0 l 422 81 q 409 61 398 48 q 388 36 372 24 q 355 12 335 5 q 316 -2 291 -7 q 266 -12 237 -12 q 183 -12 142 4 q 102 20 78 52 q 54 84 54 145 l 54 155 l 62 281 l 69 447 q 70 467 70 497 q 116 496 143 496 q 170 496 210 497 l 194 274 q 192 248 192 230 q 191 212 191 205 q 191 169 201 146 q 212 123 238 111 q 264 99 294 99 q 322 99 348 109 q 371 119 387 137 q 403 154 415 184 q 423 206 427 244 q 431 271 434 336 q 438 415 439 497 q 487 496 513 496 q 542 496 578 497 q 572 427 565 322 q 559 217 557 149 q 554 81 553 0 z"},"]":{"x_min":0,"x_max":345,"ha":345,"o":"m 225 -224 q 167 -223 115 -223 q 63 -223 6 -224 q 7 -213 9 -179 l 10 -145 q 34 -146 61 -146 q 86 -146 111 -145 q 133 223 142 588 q 117 589 92 589 q 67 589 42 588 q 45 615 46 667 q 91 666 155 666 q 219 666 264 667 l 247 384 l 233 55 z"},"U":{"x_min":0,"x_max":751,"ha":751,"o":"m 84 667 q 141 666 161 666 q 186 666 235 667 l 212 272 q 212 266 212 258 q 212 192 231 159 q 250 125 286 110 q 322 95 369 95 q 399 95 426 102 q 448 108 466 118 q 480 127 492 139 q 505 153 514 171 q 523 189 527 212 q 534 247 539 333 l 549 503 q 553 577 555 667 q 610 666 637 666 l 708 667 l 693 431 l 683 244 q 679 179 669 146 q 662 120 647 97 q 634 76 615 60 q 590 39 558 24 q 521 7 480 -1 q 423 -12 363 -12 q 302 -12 248 0 q 202 9 164 30 q 125 50 103 76 q 85 96 74 127 q 62 161 62 203 q 62 218 63 241 q 64 264 66 301 l 71 370 q 73 402 76 464 l 81 570 q 83 614 84 667 z"},"o":{"x_min":0,"x_max":618,"ha":618,"o":"m 316 508 q 372 508 424 491 q 475 475 511 442 q 547 409 565 361 q 583 313 583 261 q 583 205 564 153 q 545 102 509 64 q 473 26 419 7 q 365 -12 304 -12 q 247 -12 196 5 q 145 22 109 56 q 73 89 54 138 q 35 186 35 239 q 35 292 52 341 q 69 390 106 428 q 142 466 199 487 q 255 508 316 508 z m 316 408 q 273 408 240 387 q 207 366 190 325 q 174 284 174 236 q 174 193 187 160 q 201 127 231 106 q 262 86 304 86 q 347 86 379 107 q 412 128 428 170 q 444 211 444 261 q 444 301 432 334 q 419 368 389 388 q 359 408 316 408 z"},"N":{"x_min":0,"x_max":787,"ha":787,"o":"m 58 0 q 67 87 72 196 l 83 436 q 89 565 89 667 q 146 666 185 666 q 214 666 271 667 q 326 570 423 416 q 520 261 580 159 l 598 612 q 598 628 598 667 q 644 666 667 666 q 677 666 736 667 l 724 487 l 708 181 l 703 0 q 652 1 616 1 q 588 1 524 0 q 500 43 487 64 q 467 97 402 197 q 359 264 294 367 q 247 443 213 500 q 209 421 201 207 q 198 119 196 0 q 150 1 129 1 q 113 1 58 0 z"},"+":{"x_min":0,"x_max":610,"ha":610,"o":"m 50 299 q 54 335 55 388 q 186 386 265 386 q 267 420 272 600 q 289 599 319 599 q 350 599 366 600 l 355 386 l 441 386 l 567 388 q 564 353 562 299 q 425 301 351 301 q 349 262 343 87 q 325 88 296 88 q 268 88 250 87 l 261 301 l 199 301 z"},"G":{"x_min":0,"x_max":762,"ha":762,"o":"m 442 381 q 509 380 571 380 q 651 380 705 381 q 692 217 687 18 q 606 1 541 -5 q 475 -12 429 -12 q 343 -12 270 6 q 196 24 146 65 q 95 105 68 172 q 42 238 42 312 q 42 375 61 433 q 81 492 120 541 q 159 589 214 622 q 269 654 330 666 q 392 678 461 678 q 556 678 679 653 q 679 597 684 536 q 569 575 476 575 q 416 575 362 558 q 309 541 270 505 q 231 469 211 416 q 190 363 190 307 q 190 244 214 194 q 237 145 292 117 q 346 90 417 90 q 443 90 478 94 q 513 99 551 110 l 559 282 l 521 282 q 488 282 438 281 q 442 346 442 381 z"},"q":{"x_min":0,"x_max":620,"ha":620,"o":"m 401 -224 l 409 -90 q 412 -60 414 -11 l 418 81 q 396 54 381 39 q 366 25 345 13 q 323 2 297 -5 q 271 -12 243 -12 q 199 -12 160 5 q 121 21 92 53 q 63 84 49 128 q 35 171 35 217 q 35 284 61 345 q 87 406 133 443 q 178 479 240 494 q 301 508 373 508 q 410 508 455 505 q 500 501 574 489 q 550 236 543 -224 q 506 -223 473 -223 q 446 -223 401 -224 z m 427 398 q 389 408 356 408 q 299 408 256 385 q 214 361 192 316 q 170 270 170 215 q 170 180 183 150 q 195 121 222 104 q 249 86 283 86 q 311 86 337 99 q 362 112 381 137 q 400 162 410 194 q 416 214 420 255 q 424 296 427 398 z"},"d":{"x_min":0,"x_max":625,"ha":625,"o":"m 554 0 q 513 1 491 1 q 466 1 423 0 l 428 85 q 406 57 391 42 q 375 27 353 14 q 330 1 304 -5 q 277 -12 249 -12 q 202 -12 161 5 q 120 22 91 53 q 62 84 49 127 q 35 170 35 216 q 35 280 60 341 q 84 402 126 439 q 169 477 223 493 q 276 508 338 508 q 382 508 438 500 q 442 563 442 633 l 442 667 q 488 666 512 666 q 544 666 583 667 q 573 542 563 329 q 554 115 554 0 z m 433 407 q 396 417 363 417 q 324 417 289 406 q 254 396 227 370 q 200 344 185 303 q 170 263 170 225 q 170 188 184 156 q 197 125 226 107 q 254 89 290 89 q 316 89 338 98 q 360 108 378 128 q 396 147 409 179 q 421 210 427 262 q 430 300 433 407 z"},"1":{"x_min":0,"x_max":610,"ha":610,"o":"m 248 0 q 254 75 259 171 l 268 366 q 273 466 274 538 q 252 524 241 516 q 229 509 184 478 q 187 508 188 546 q 190 584 190 605 q 207 615 234 631 q 262 648 269 653 q 275 657 287 667 q 316 666 357 666 q 397 666 433 667 l 427 600 q 425 577 423 534 l 403 146 l 402 88 q 401 70 401 51 l 402 0 q 369 1 330 1 q 284 1 248 0 z"},"5":{"x_min":0,"x_max":610,"ha":610,"o":"m 78 9 l 76 48 q 75 63 73 79 q 72 95 68 121 q 160 94 225 94 q 271 94 308 110 q 346 125 367 156 q 389 186 389 220 q 389 250 372 273 q 356 295 322 307 q 288 319 233 319 q 201 319 170 317 q 140 314 88 306 q 108 527 118 667 q 249 666 333 666 q 444 666 543 667 q 540 627 540 608 l 538 561 q 495 564 403 565 l 317 566 q 295 566 257 565 l 242 396 q 283 401 312 401 q 384 401 442 381 q 500 360 527 316 q 554 273 554 221 q 554 169 529 122 q 504 75 459 45 q 415 16 357 2 q 299 -12 238 -12 q 216 -12 185 -9 q 153 -6 132 -2 q 111 1 78 9 z"}}}
